<?xml version="1.0" encoding="UTF-8"?>
<svg xmlns="http://www.w3.org/2000/svg" viewBox="0 0 256 256" role="img" aria-label="SecShare favicon">
  <title>SecShare favicon</title>
  <rect width="256" height="256" rx="52" fill="#F8FAFC"/>
  <path d="M128 28 L200 59 V116 C200 168 170 206 128 226 C86 206 56 168 56 116 V59 Z"
        fill="#FFFFFF" stroke="#2563EB" stroke-width="17" stroke-linejoin="round"/>
  <g fill="none" stroke-linecap="round" stroke-linejoin="round" stroke-width="14">
    <path d="M112 142 L98 156 C87 167 70 150 81 139 L95 125 C104 116 118 116 128 124"
          stroke="#2563EB"/>
    <path d="M142 113 L158 97 C169 86 186 103 175 114 L159 130 C150 139 136 139 126 131"
          stroke="#0EA5A4"/>
    <path d="M106 134 L151 123" stroke="#2563EB"/>
  </g>
</svg>